HIERARCHY
ROOT joint_Root
{
	OFFSET 0.0 0.0 0.0
	CHANNELS 6 Xposition Yposition Zposition Zrotation Xrotation Yrotation 
	JOINT Hips
	{
		OFFSET 4.5925 91.4895 -427.239
		CHANNELS 6 Xposition Yposition Zposition Zrotation Xrotation Yrotation 
		JOINT Spine
		{
			OFFSET 15.7357 0.0 0.0
			CHANNELS 6 Xposition Yposition Zposition Zrotation Xrotation Yrotation 
			JOINT Chest
			{
				OFFSET 8.98455 -0.406207 0.0
				CHANNELS 6 Xposition Yposition Zposition Zrotation Xrotation Yrotation 
				JOINT Neck
				{
					OFFSET 16.3773 0.0 0.0
					CHANNELS 6 Xposition Yposition Zposition Zrotation Xrotation Yrotation 
					JOINT Head
					{
						OFFSET 6.45672 0.0 0.0
						CHANNELS 6 Xposition Yposition Zposition Zrotation Xrotation Yrotation 
						End Site
						{
							OFFSET 0.0 0.0 0.0
						}
					}
				}
				JOINT Shoulder_L
				{
					OFFSET 12.9942 -0.242716 4.98039
					CHANNELS 6 Xposition Yposition Zposition Zrotation Xrotation Yrotation 
					JOINT UpperArm_L
					{
						OFFSET 5.34809 0.0 0.0
						CHANNELS 6 Xposition Yposition Zposition Zrotation Xrotation Yrotation 
						JOINT LowerArm_L
						{
							OFFSET 24.3286 1.87007e-05 0.0
							CHANNELS 6 Xposition Yposition Zposition Zrotation Xrotation Yrotation 
							JOINT Hand_L
							{
								OFFSET 22.2916 0.0 0.0
								CHANNELS 6 Xposition Yposition Zposition Zrotation Xrotation Yrotation 
								End Site
								{
									OFFSET 0.0 0.0 0.0
								}
							}
						}
					}
				}
				JOINT Shoulder_R
				{
					OFFSET 12.9945 -0.242716 -4.98039
					CHANNELS 6 Xposition Yposition Zposition Zrotation Xrotation Yrotation 
					JOINT UpperArm_R
					{
						OFFSET -5.34813 0.0 0.0
						CHANNELS 6 Xposition Yposition Zposition Zrotation Xrotation Yrotation 
						JOINT LowerArm_R
						{
							OFFSET -24.3289 0.000322201 0.0
							CHANNELS 6 Xposition Yposition Zposition Zrotation Xrotation Yrotation 
							JOINT Hand_R
							{
								OFFSET -22.2915 -0.000108084 0.0
								CHANNELS 6 Xposition Yposition Zposition Zrotation Xrotation Yrotation 
								End Site
								{
									OFFSET 0.0 0.0 0.0
								}
							}
						}
					}
				}
			}
		}
		JOINT UpperLeg_L
		{
			OFFSET -2.19248 -6.46944 0.0
			CHANNELS 6 Xposition Yposition Zposition Zrotation Xrotation Yrotation 
			JOINT LowerLeg_L
			{
				OFFSET 39.0811 0.0 -1.23785e-05
				CHANNELS 6 Xposition Yposition Zposition Zrotation Xrotation Yrotation 
				JOINT Foot_L
				{
					OFFSET 40.9854 0.0 -1.26872e-05
					CHANNELS 6 Xposition Yposition Zposition Zrotation Xrotation Yrotation 
					JOINT Toes_L
					{
						OFFSET 11.7543 0.0 0.0
						CHANNELS 6 Xposition Yposition Zposition Zrotation Xrotation Yrotation 
						End Site
						{
							OFFSET 0.0 0.0 0.0
						}
					}
				}
			}
		}
		JOINT UpperLeg_R
		{
			OFFSET -2.19251 6.46944 0.0
			CHANNELS 6 Xposition Yposition Zposition Zrotation Xrotation Yrotation 
			JOINT LowerLeg_R
			{
				OFFSET -39.0811 -0.00228153 -0.0401928
				CHANNELS 6 Xposition Yposition Zposition Zrotation Xrotation Yrotation 
				JOINT Foot_R
				{
					OFFSET -40.9854 0.0 0.0
					CHANNELS 6 Xposition Yposition Zposition Zrotation Xrotation Yrotation 
					JOINT Toes_R
					{
						OFFSET -11.7543 0.0 0.0
						CHANNELS 6 Xposition Yposition Zposition Zrotation Xrotation Yrotation 
						End Site
						{
							OFFSET 0.0 0.0 0.0
						}
					}
				}
			}
		}
	}
}
MOTION
Frames:	6
Frame Time:	0.0333333
0.000000 0.000000 0.000000 0.000000 0.000000 -0.000000 -0.165632 84.167900 -0.725468 90.979500 -6.454710 9.471490 15.735700 0.000005 -0.000001 88.963800 81.140200 -89.491400 8.984550 -0.406207 -0.000000 9.949550 -0.328488 -1.025850 16.377300 -0.000001 -0.000001 -3.307360 -1.293630 1.296770 6.456720 -0.000001 -0.000000 -3.942530 -1.320500 5.915510 12.994200 -0.242716 4.980390 -91.605300 6.000870 -74.993200 5.348090 -0.000007 -0.000001 -71.584500 14.787200 -6.637770 24.328600 0.000019 0.000005 7.123050 10.155800 -35.362600 22.291600 -0.000001 0.000005 12.361000 5.342790 -1.170590 12.994500 -0.242716 -4.980390 88.428800 9.353080 -80.420100 -5.348130 -0.000001 -0.000004 -60.361800 34.490700 -9.526290 -24.328900 0.000322 -0.000009 1.407690 2.426060 -30.165300 -22.291500 -0.000108 -0.000004 19.576200 5.456860 -4.884430 -2.192480 -6.469440 -0.000000 -175.234000 -17.038000 -12.509000 39.081100 -0.000007 -0.000012 -0.360089 0.244948 55.775600 40.985400 -0.000006 -0.000013 2.194890 6.389670 -83.356000 11.754300 -0.000000 0.000003 -0.000690 -0.005202 -16.765100 -2.192510 6.469440 -0.000001 174.680000 11.101100 165.572000 -39.081100 -0.002282 -0.040193 0.063760 -0.038561 57.507600 -40.985400 0.000008 0.000006 6.823580 6.025110 -83.244000 -11.754300 -0.000006 -0.000006 -1.046020 -1.297040 -16.970700
0.000000 0.000000 0.000000 0.000000 0.000000 -0.000000 -0.091732 85.491100 -0.179946 91.273100 -6.868760 9.161840 15.735700 0.000005 -0.000001 88.704300 81.808400 -88.558500 8.984550 -0.406207 -0.000000 8.613650 -0.367571 0.319020 16.377300 -0.000001 -0.000001 -1.949680 -1.337750 1.073630 6.456720 -0.000001 -0.000000 -3.036150 -1.560350 4.761710 12.994200 -0.242716 4.980390 -91.481900 5.059130 -73.647700 5.348090 -0.000007 -0.000001 -69.752800 11.867500 -10.410500 24.328600 0.000019 0.000005 8.708250 8.882490 -44.742900 22.291600 -0.000001 0.000005 11.229600 5.361840 -1.739700 12.994500 -0.242716 -4.980390 88.269900 9.507610 -79.637500 -5.348130 -0.000001 -0.000004 -61.763400 32.280200 -7.200900 -24.328900 0.000322 -0.000009 1.692460 3.078120 -28.834600 -22.291500 -0.000108 -0.000004 19.650300 5.442670 -4.379580 -2.192480 -6.469440 -0.000000 -175.626000 -17.298700 -10.187200 39.081100 -0.000007 -0.000012 -0.329579 0.264014 51.303800 40.985400 -0.000006 -0.000013 1.920990 6.311230 -81.537700 11.754300 -0.000000 0.000003 -0.000671 -0.005083 -16.761000 -2.192510 6.469440 -0.000001 174.285000 10.975600 167.640000 -39.081100 -0.002282 -0.040193 0.053920 -0.037706 53.354000 -40.985400 0.000008 0.000006 6.712570 6.613090 -81.671600 -11.754300 -0.000006 -0.000006 -0.910573 -1.125470 -16.965800
0.000000 0.000000 0.000000 0.000000 0.000000 -0.000000 -0.180806 87.462000 0.394876 91.483400 -6.176940 8.887750 15.735700 0.000005 -0.000001 88.241600 82.668700 -87.287400 8.984550 -0.406207 -0.000000 6.894370 -0.455658 1.933870 16.377300 -0.000001 -0.000001 0.460827 -2.149120 0.680839 6.456720 -0.000001 -0.000000 -1.754610 -2.271410 3.442720 12.994200 -0.242716 4.980390 -91.056400 3.395880 -72.706700 5.348090 -0.000007 -0.000001 -64.287300 7.674310 -20.603700 24.328600 0.000019 0.000005 10.480300 7.582530 -54.517700 22.291600 -0.000001 0.000005 10.572600 5.372040 -2.049540 12.994500 -0.242716 -4.980390 88.136200 9.069080 -78.334600 -5.348130 -0.000001 -0.000004 -63.519500 30.316200 -3.823670 -24.328900 0.000322 -0.000009 0.669472 1.271810 -27.794000 -22.291500 -0.000108 -0.000004 20.004200 5.454550 -4.804670 -2.192480 -6.469440 -0.000000 -176.085000 -16.353700 -6.631580 39.081100 -0.000007 -0.000012 -0.284757 0.294012 44.084400 40.985400 -0.000006 -0.000013 1.403050 6.218430 -78.226100 11.754300 -0.000000 0.000003 -0.000539 -0.004241 -16.732100 -2.192510 6.469440 -0.000001 173.881000 11.884200 171.283000 -39.081100 -0.002282 -0.040193 0.042675 -0.037331 46.555700 -40.985400 0.000008 0.000006 6.323400 7.345220 -78.744000 -11.754300 -0.000006 -0.000006 -0.803837 -0.990105 -17.051400
0.000000 0.000000 0.000000 0.000000 0.000000 -0.000000 -0.526510 89.326200 0.745180 91.274400 -4.815960 7.839390 15.735700 0.000005 -0.000001 86.019600 83.837500 -84.237500 8.984550 -0.406207 -0.000000 4.546220 -0.904061 3.596020 16.377300 -0.000001 -0.000001 3.097360 -3.277220 0.609556 6.456720 -0.000001 -0.000000 -0.127643 -2.975620 2.316560 12.994200 -0.242716 4.980390 -90.461200 1.466090 -72.539100 5.348090 -0.000007 -0.000001 -57.676800 -2.027400 -35.137200 24.328600 0.000019 0.000005 7.873110 4.195150 -62.137200 22.291600 -0.000001 0.000005 13.086300 5.375270 -2.144800 12.994500 -0.242716 -4.980390 88.077200 8.122480 -76.632200 -5.348130 -0.000001 -0.000004 -64.915700 29.186800 -0.858203 -24.328900 0.000322 -0.000009 0.572637 1.126780 -26.986200 -22.291500 -0.000108 -0.000004 18.762500 5.455580 -4.834900 -2.192480 -6.469440 -0.000000 -175.963000 -16.037200 -3.768950 39.081100 -0.000007 -0.000012 -0.195829 0.265622 36.399700 40.985400 -0.000006 -0.000013 1.278460 7.297570 -74.466200 11.754300 -0.000000 0.000003 -0.101727 -0.138128 -16.578700 -2.192510 6.469440 -0.000001 174.136000 13.957700 174.544000 -39.081100 -0.002282 -0.040193 0.032604 -0.036196 39.010900 -40.985400 0.000008 0.000006 6.343750 8.226680 -75.460700 -11.754300 -0.000006 -0.000006 -0.612474 -0.751988 -17.175100
0.000000 0.000000 0.000000 0.000000 0.000000 -0.000000 -0.970669 90.644700 0.974208 91.063100 -4.018080 6.541650 15.735700 0.000005 -0.000001 81.838800 84.862100 -79.397800 8.984550 -0.406207 -0.000000 2.444640 -1.570820 4.910810 16.377300 -0.000001 -0.000001 4.698180 -4.006420 0.797886 6.456720 -0.000001 -0.000000 0.959996 -3.160420 1.543940 12.994200 -0.242716 4.980390 -89.718300 -0.959024 -73.594100 5.348090 -0.000007 -0.000001 -54.474400 -18.283200 -50.971900 24.328600 0.000019 0.000005 6.513220 2.985150 -65.481500 22.291600 -0.000001 0.000005 16.410900 5.384370 -2.434160 12.994500 -0.242716 -4.980390 88.043100 7.355010 -75.056100 -5.348130 -0.000001 -0.000004 -64.859700 29.309200 1.055780 -24.328900 0.000322 -0.000009 1.005340 1.958860 -27.198200 -22.291500 -0.000108 -0.000004 17.438900 5.443730 -4.415780 -2.192480 -6.469440 -0.000000 -175.620000 -17.672000 -2.390700 39.081100 -0.000007 -0.000012 0.011655 -0.019312 31.110000 40.985400 -0.000006 -0.000013 3.231480 9.423970 -71.312900 11.754300 -0.000000 0.000003 -1.167520 -1.531720 -16.171300 -2.192510 6.469440 -0.000001 174.412000 16.624100 176.937000 -39.081100 -0.002282 -0.040193 0.022810 -0.030638 32.493400 -40.985400 0.000008 0.000006 6.534650 10.141900 -72.874800 -11.754300 -0.000006 -0.000006 -0.318187 -0.393936 -17.190000
0.000000 0.000000 0.000000 0.000000 0.000000 -0.000000 -1.267730 91.387900 1.044330 91.031800 -4.541140 5.039870 15.735700 0.000005 -0.000001 73.456300 85.383100 -70.546600 8.984550 -0.406207 -0.000000 1.164700 -2.795600 5.843970 16.377300 -0.000001 -0.000001 4.658030 -3.301800 0.981220 6.456720 -0.000001 -0.000000 1.137230 -2.450630 1.317160 12.994200 -0.242716 4.980390 -88.689100 -4.618970 -74.142400 5.348090 -0.000007 -0.000001 -58.115800 -36.748000 -68.519000 24.328600 0.000019 0.000005 3.567110 1.887480 -62.034200 22.291600 -0.000001 0.000005 20.150400 5.428570 -3.844450 12.994500 -0.242716 -4.980390 88.054000 7.260820 -74.952900 -5.348130 -0.000001 -0.000004 -62.944900 30.181200 1.463080 -24.328900 0.000322 -0.000009 1.182990 2.190470 -28.400000 -22.291500 -0.000108 -0.000004 17.613500 5.440480 -4.304090 -2.192480 -6.469440 -0.000000 -175.179000 -19.841200 -2.024530 39.081100 -0.000007 -0.000012 0.008898 -0.016943 27.706300 40.985400 -0.000006 -0.000013 1.795460 11.870600 -69.052300 11.754300 -0.000000 0.000003 -0.419040 -0.507935 -15.163600 -2.192510 6.469440 -0.000001 174.514000 19.276400 177.754000 -39.081100 -0.002282 -0.040193 0.015674 -0.023153 28.110500 -40.985400 0.000008 0.000006 7.163700 13.204000 -71.503900 -11.754300 -0.000006 -0.000006 -0.119693 -0.151598 -16.934800
